<svg version="1.1" id="Layer_1" xmlns="http://www.w3.org/2000/svg" xmlns:xlink="http://www.w3.org/1999/xlink" x="0px" y="0px"
	 width="100%" viewBox="0 0 1024 368" enable-background="new 0 0 1024 368" xml:space="preserve">
<path fill="#000000" opacity="1.000000" stroke="none" 
	d="
M612.000000,241.760925 
	C627.650818,241.754089 642.804138,241.898071 657.950867,241.645569 
	C662.331299,241.572540 665.030640,243.078186 667.344299,246.694046 
	C672.248230,254.358139 677.514038,261.790710 683.352722,270.379120 
	C614.917480,270.379120 547.749084,270.379120 480.603058,270.379120 
	C479.992004,267.869202 481.615265,266.620575 482.581909,265.193237 
	C486.874695,258.854553 491.448669,252.698425 495.545319,246.238068 
	C497.673553,242.881882 500.173553,241.659637 504.112305,241.673874 
	C539.907837,241.803329 575.703979,241.756226 612.000000,241.760925 
z"/>
<path fill="#000000" opacity="1.000000" stroke="none" 
	d="
M616.999878,237.367523 
	C578.769043,237.367844 541.038147,237.367844 503.733795,237.367844 
	C502.698700,235.153152 503.469025,234.146988 504.108032,233.231232 
	C507.726624,228.045181 511.203613,222.882111 512.429138,216.421005 
	C513.017761,213.317581 515.246643,210.655945 518.045715,209.006866 
	C522.991760,206.092941 525.907104,201.487854 528.981262,196.925354 
	C545.356384,172.622330 561.776855,148.349762 578.201233,124.080009 
	C578.835510,123.142830 579.671509,122.342232 581.028931,120.761261 
	C607.579407,159.408295 633.862488,197.666245 660.145630,235.924194 
	C659.844971,236.405212 659.544250,236.886215 659.243591,237.367218 
	C645.329041,237.367218 631.414490,237.367218 616.999878,237.367523 
M537.119202,231.438065 
	C574.075745,231.293945 611.032227,231.149826 648.285461,231.004562 
	C647.062012,225.506592 644.290039,224.291489 640.007568,224.305710 
	C603.363403,224.427307 566.718689,224.391891 530.074158,224.332977 
	C527.989075,224.329636 524.838928,225.306580 524.839966,221.570114 
	C524.840942,217.899689 527.923035,218.899429 530.066223,218.718994 
	C531.555115,218.593643 533.062439,218.683792 534.561523,218.683731 
	C566.875244,218.682358 599.189026,218.694855 631.502747,218.656296 
	C634.071655,218.653229 636.757935,219.131393 639.333740,217.815521 
	C638.443970,213.184998 635.765747,211.806732 631.452332,211.833435 
	C609.139465,211.971588 586.825317,211.909042 564.511658,211.913620 
	C552.352356,211.916122 540.192078,211.821838 528.034119,211.949249 
	C521.597046,212.016708 517.660645,215.845566 517.564758,221.633270 
	C517.472534,227.198883 521.592896,231.157028 527.925049,231.444580 
	C530.750061,231.572861 533.585327,231.476257 537.119202,231.438065 
M550.664917,179.759079 
	C571.372192,179.759079 592.079468,179.759079 614.068176,179.759079 
	C602.619812,162.978760 591.980469,147.384308 581.387146,131.857239 
	C580.476990,132.317612 580.078979,132.386063 579.920349,132.618118 
	C569.864075,147.330673 559.821167,162.052368 549.803406,176.791183 
	C549.184143,177.702347 548.251221,178.789780 550.664917,179.759079 
M540.811279,202.674637 
	C543.424805,205.100616 546.595825,205.708603 550.043640,205.704987 
	C575.521179,205.678329 600.998779,205.709427 626.476257,205.675201 
	C627.881897,205.673309 629.475769,206.200241 630.756958,204.859146 
	C629.707214,200.374802 626.870056,198.970840 622.398682,198.999985 
	C598.920288,199.152985 575.440430,199.086548 551.961121,199.079086 
	C550.300842,199.078552 548.617737,199.083725 546.986389,198.826019 
	C545.180786,198.540802 544.671814,197.153275 544.783630,195.470108 
	C544.888123,193.897751 545.743408,193.015045 547.282043,192.898087 
	C548.773621,192.784698 550.274841,192.760498 551.771790,192.759933 
	C572.919861,192.752136 594.067993,192.778885 615.215881,192.717346 
	C617.264709,192.711380 619.546936,193.443787 621.462463,191.605087 
	C620.631409,187.422272 618.050598,186.111191 613.962219,186.134338 
	C592.481750,186.255905 571.000183,186.163101 549.519226,186.224258 
	C539.681213,186.252274 535.694702,193.226486 540.811279,202.674637 
z"/>
<path fill="#000000" opacity="1.000000" stroke="none" 
	d="
M187.930481,200.028778 
	C187.904861,203.844788 187.940613,207.176559 187.825043,210.503082 
	C187.770401,212.076355 187.298782,213.568344 185.228745,213.409012 
	C183.514557,213.277084 183.049622,211.974030 183.042221,210.575821 
	C182.991074,200.918320 182.988770,191.260498 182.997467,181.602829 
	C182.998535,180.420715 183.150696,179.117172 184.410110,178.632812 
	C186.138306,177.968170 187.243683,179.169403 188.177002,180.371445 
	C192.974625,186.550415 197.738312,192.755722 202.515656,198.950455 
	C203.927994,200.781784 205.346222,202.608597 207.755829,205.721848 
	C207.755829,197.929855 207.751328,191.572479 207.759140,185.215088 
	C207.760971,183.717438 207.761536,182.217575 207.841339,180.722931 
	C207.911270,179.413284 208.546036,178.471466 209.966431,178.442322 
	C211.390747,178.413086 212.145370,179.327057 212.148895,180.639328 
	C212.176132,190.794342 212.157669,200.949524 212.121780,211.104568 
	C212.117981,212.179459 211.586884,213.041718 210.461319,213.311966 
	C208.521149,213.777832 207.327194,212.639023 206.268600,211.262527 
	C201.396576,204.927368 196.538452,198.581451 191.640747,192.266205 
	C190.849075,191.245392 190.348984,189.905701 187.929764,189.120972 
	C187.929764,192.787964 187.929764,196.165176 187.930481,200.028778 
z"/>
<path fill="#000000" opacity="1.000000" stroke="none" 
	d="
M131.226715,191.591858 
	C130.579819,195.769485 127.835899,197.977783 124.946373,200.306229 
	C126.036064,205.011078 130.407486,208.122070 131.487213,212.755096 
	C128.878326,214.568848 127.381905,213.368729 126.185577,211.577927 
	C124.708305,209.366547 123.166008,207.160126 122.020226,204.774597 
	C120.205917,200.997223 117.100037,200.580368 113.630981,201.250107 
	C109.946617,201.961395 111.451035,205.136658 111.072296,207.375580 
	C110.935226,208.185898 111.065903,209.037842 111.014977,209.867142 
	C110.910652,211.565933 110.840210,213.448807 108.466980,213.339584 
	C106.156647,213.233231 106.097679,211.310226 106.081345,209.647430 
	C106.027420,204.157852 106.052643,198.667343 106.070824,193.177277 
	C106.082390,189.684036 106.165543,186.190887 106.160988,182.697784 
	C106.156631,179.355972 107.790085,177.867416 111.106468,177.983124 
	C113.765244,178.075867 116.437828,177.880722 119.089539,178.047684 
	C127.440941,178.573486 131.261139,182.745621 131.226715,191.591858 
M112.318169,182.816269 
	C110.107895,185.617996 111.435158,188.897751 111.087921,191.950729 
	C110.661880,195.696548 112.453415,197.126434 116.061539,196.755615 
	C117.548195,196.602829 119.090508,196.832596 120.545090,196.557892 
	C124.226311,195.862656 126.589279,193.697479 126.706261,189.804459 
	C126.830605,185.666077 124.464279,183.194016 120.569176,182.541733 
	C118.144783,182.135727 115.592987,182.490417 112.318169,182.816269 
z"/>
<path fill="#000000" opacity="1.000000" stroke="none" 
	d="
M257.176025,195.999908 
	C256.465118,208.018890 251.203461,213.113358 239.575714,213.479492 
	C228.551544,213.826660 228.571976,213.826675 228.580048,203.107376 
	C228.585175,196.304993 228.632996,189.499222 228.436172,182.701508 
	C228.336624,179.263412 229.702515,177.807602 233.082520,177.961319 
	C235.235107,178.059250 237.400650,177.884659 239.552017,177.995148 
	C250.548508,178.559814 256.434814,184.452591 257.176025,195.999908 
M242.626465,209.469803 
	C250.511810,206.617676 253.930176,200.757751 252.308075,192.873154 
	C250.749908,185.299316 245.926102,182.050949 237.308395,182.273132 
	C233.974335,182.359085 232.958649,183.741074 233.020874,186.809250 
	C233.125275,191.956909 233.012421,197.108643 233.025314,202.258575 
	C233.044281,209.828690 233.057175,209.829193 240.806519,209.659180 
	C241.138336,209.651901 241.469574,209.617126 242.626465,209.469803 
z"/>
<path fill="#000000" opacity="1.000000" stroke="none" 
	d="
M459.802643,202.954391 
	C459.809845,195.974884 459.902313,189.485184 459.792725,182.998917 
	C459.735748,179.625336 461.205994,178.051163 464.516083,178.081467 
	C467.840240,178.111893 471.183197,177.936874 474.484131,178.231140 
	C479.823822,178.707169 483.514740,181.580780 484.892212,186.837448 
	C486.209320,191.863724 484.660217,196.010605 480.332245,199.032562 
	C479.809998,199.397232 479.366486,199.874695 478.813416,200.364609 
	C480.057343,205.014069 484.129822,208.056274 485.440308,212.631836 
	C482.804749,214.195221 481.199921,213.135605 479.901184,211.110580 
	C478.554291,209.010452 477.042480,206.986069 475.952759,204.757431 
	C473.875641,200.509293 470.219086,200.509537 466.572083,201.322433 
	C463.014008,202.115509 464.756073,205.392960 464.347321,207.627441 
	C464.199554,208.435181 464.325806,209.289200 464.265930,210.117706 
	C464.168182,211.470108 464.053955,212.963776 462.265198,213.025070 
	C460.209229,213.095520 459.928772,211.487061 459.869415,209.932785 
	C459.786957,207.772720 459.820343,205.608231 459.802643,202.954391 
M464.336487,191.317108 
	C463.639069,195.824387 465.783752,197.339737 470.011719,196.809799 
	C471.485687,196.625046 473.019318,196.857544 474.476624,196.610199 
	C478.446686,195.936325 480.726379,193.498550 480.693726,189.459076 
	C480.660858,185.394409 478.247131,183.017822 474.312836,182.449081 
	C472.198669,182.143463 470.007538,182.407288 467.854706,182.323074 
	C465.294983,182.222931 464.230103,183.451508 464.328796,185.933075 
	C464.388092,187.423309 464.336914,188.917938 464.336487,191.317108 
z"/>
<path fill="#000000" opacity="1.000000" stroke="none" 
	d="
M915.622986,197.843475 
	C913.836121,197.872040 912.503540,197.882187 911.170959,197.891113 
	C904.354370,197.936813 902.476501,200.518356 904.147461,207.211975 
	C904.686890,209.372742 906.086914,209.662338 907.854004,209.669403 
	C911.685181,209.684692 915.517273,209.651154 919.347168,209.728470 
	C920.768250,209.757156 922.661011,209.476257 922.673401,211.700867 
	C922.683105,213.442749 921.113770,213.796310 919.795471,213.815643 
	C914.135925,213.898743 908.473633,213.913895 902.814331,213.826385 
	C900.586426,213.791946 899.644714,212.368439 899.650391,210.183960 
	C899.675110,200.689407 899.676575,191.194763 899.663818,181.700180 
	C899.660889,179.516327 900.610535,178.116592 902.850647,178.087387 
	C908.344604,178.015747 913.840881,178.032455 919.334778,178.110016 
	C920.689331,178.129135 922.114441,178.520599 922.042969,180.336990 
	C921.970337,182.181747 920.491577,182.283401 919.148987,182.303314 
	C915.485107,182.357651 911.814026,182.473557 908.157166,182.310654 
	C903.727783,182.113388 903.999390,185.076523 904.028931,187.990936 
	C904.057983,190.856506 903.649719,193.946198 908.158569,193.628296 
	C910.644470,193.453018 913.161926,193.486099 915.649353,193.656433 
	C917.271790,193.767563 919.847778,192.834930 919.909607,195.641724 
	C919.960938,197.972763 917.588928,197.460342 915.622986,197.843475 
z"/>
<path fill="#000000" opacity="1.000000" stroke="none" 
	d="
M951.795166,194.064209 
	C952.489380,194.272949 952.808228,194.368103 953.125488,194.468307 
	C960.442505,196.779465 963.655884,200.517014 962.773071,205.688324 
	C961.891907,210.849716 956.737976,214.283615 949.726440,214.183136 
	C945.842651,214.127502 942.103577,213.243973 938.964050,210.810547 
	C937.142334,209.398636 935.693359,207.699417 938.610718,205.515564 
	C942.425903,207.691818 946.137695,210.308594 950.982544,209.770218 
	C954.158386,209.417313 957.093628,208.866501 957.672363,205.130707 
	C958.234436,201.502441 955.597046,200.197525 952.771667,199.272736 
	C949.616455,198.240021 946.390991,197.411957 943.266907,196.296722 
	C939.794617,195.057205 937.881348,192.460571 937.733093,188.756866 
	C937.573364,184.765137 939.100586,181.685379 942.806274,179.786346 
	C948.384399,176.927719 953.715149,177.507401 958.891968,180.744904 
	C960.266785,181.604691 961.315552,182.787811 960.137939,184.431549 
	C959.088013,185.897095 957.829163,185.157883 956.649475,184.394043 
	C953.729492,182.503418 950.556274,181.635162 947.148010,182.627258 
	C944.634827,183.358810 942.537842,184.761566 942.400940,187.731567 
	C942.268494,190.605972 944.350159,191.777588 946.617859,192.604919 
	C948.174988,193.172989 949.815735,193.511734 951.795166,194.064209 
z"/>
<path fill="#000000" opacity="1.000000" stroke="none" 
	d="
M274.081909,212.307770 
	C272.749725,211.533081 271.733765,210.956345 270.814636,210.253036 
	C269.466248,209.221222 268.858795,207.835342 269.993591,206.376602 
	C271.167480,204.867569 272.386169,205.909882 273.413513,206.745209 
	C277.037170,209.691589 281.221527,210.239838 285.655243,209.631882 
	C288.223175,209.279785 290.009277,207.756119 290.463501,205.231659 
	C290.948425,202.536423 289.313690,200.711914 286.969330,199.849960 
	C284.019379,198.765350 280.909790,198.124115 277.907379,197.170929 
	C273.489532,195.768387 269.833038,193.339355 270.068115,188.168823 
	C270.295410,183.168930 273.295135,180.014725 278.165070,178.617569 
	C282.945160,177.246231 287.380371,177.872910 291.486206,180.635773 
	C292.802521,181.521530 293.838928,182.778305 292.744141,184.397461 
	C291.700928,185.940399 290.394196,185.072128 289.279541,184.316513 
	C286.523987,182.448639 283.488373,181.778320 280.255280,182.382538 
	C277.415009,182.913345 275.322266,184.433990 275.070679,187.586533 
	C274.823700,190.680771 276.824371,192.005905 279.405548,192.822266 
	C282.886078,193.923065 286.439270,194.848862 289.814575,196.212860 
	C293.549103,197.722015 295.550812,200.601135 295.226410,204.824234 
	C294.912445,208.911636 292.797455,211.610260 288.998383,213.026688 
	C284.069763,214.864258 279.219727,214.507523 274.081909,212.307770 
z"/>
<path fill="#000000" opacity="1.000000" stroke="none" 
	d="
M145.800293,190.034729 
	C145.989014,177.448822 143.723541,178.002197 157.243317,177.957794 
	C159.903961,177.949051 162.566483,177.942398 165.224823,178.032822 
	C166.737640,178.084290 168.468170,178.259247 168.549820,180.244232 
	C168.640656,182.451782 166.774673,182.300247 165.322861,182.324783 
	C161.664902,182.386627 157.995789,182.518799 154.348816,182.311676 
	C149.809128,182.053879 150.286285,185.109329 150.291000,187.954056 
	C150.295639,190.760818 149.672211,193.910385 154.257767,193.658859 
	C157.407700,193.486069 160.576233,193.612946 163.735413,193.666809 
	C165.091873,193.689926 166.595093,193.810913 166.430161,195.728622 
	C166.295883,197.290039 164.923203,197.316299 163.770370,197.346176 
	C161.277618,197.410782 158.774368,197.265671 156.290985,197.434875 
	C154.281723,197.571777 151.386597,196.399719 150.645294,199.149506 
	C149.838058,202.143768 149.805527,205.449997 150.807175,208.490692 
	C151.295731,209.973846 153.040329,209.658096 154.338531,209.676865 
	C158.329193,209.734634 162.321075,209.712814 166.311493,209.780365 
	C167.490402,209.800323 168.817932,209.992828 168.977463,211.463211 
	C169.170242,213.239716 167.759277,213.770172 166.391403,213.786423 
	C160.576141,213.855545 154.755402,213.925888 148.944931,213.738739 
	C146.043884,213.645294 145.808029,211.291946 145.811630,208.989960 
	C145.821289,202.836273 145.806152,196.682541 145.800293,190.034729 
z"/>
<path fill="#000000" opacity="1.000000" stroke="none" 
	d="
M313.604492,199.459976 
	C313.701599,209.697754 313.701599,209.692596 323.312256,209.701050 
	C325.472595,209.702942 327.634399,209.715408 329.792480,209.800552 
	C330.814240,209.840866 331.843689,210.140442 332.002045,211.367676 
	C332.153442,212.541107 331.437225,213.303482 330.347504,213.465256 
	C323.897797,214.422791 317.436920,213.892410 310.993896,213.386185 
	C309.632599,213.279251 309.328949,211.785782 309.397552,210.615524 
	C309.942291,201.322220 308.519684,192.043121 309.360077,182.729248 
	C309.692505,179.044830 311.212738,177.847137 314.662354,177.963867 
	C319.311920,178.121231 323.970795,177.982101 328.623871,178.067978 
	C330.108826,178.095383 331.908661,178.252213 331.869110,180.302170 
	C331.828308,182.419296 329.975616,182.285202 328.515717,182.308029 
	C324.693115,182.367798 320.862183,182.196945 317.047363,182.382095 
	C311.078217,182.671829 314.731903,187.494919 313.724701,190.092682 
	C312.791565,192.499527 314.449310,193.693069 316.986420,193.647949 
	C320.309509,193.588882 323.635925,193.613434 326.958740,193.692261 
	C328.297363,193.723999 329.838989,193.920212 329.688721,195.775101 
	C329.563812,197.316742 328.126465,197.299973 326.989075,197.332687 
	C323.170013,197.442535 319.345306,197.413757 315.532196,197.615753 
	C314.895966,197.649475 314.306702,198.569443 313.604492,199.459976 
z"/>
<path fill="#000000" opacity="1.000000" stroke="none" 
	d="
M781.706909,178.668549 
	C785.218689,178.098190 785.803711,179.353256 784.043091,181.822937 
	C781.533142,185.343628 779.061462,188.914017 776.265625,192.201416 
	C773.990967,194.876038 774.213196,197.041428 776.243469,199.690826 
	C779.354126,203.749878 782.190796,208.018967 785.211975,212.295441 
	C781.123535,213.798767 781.121094,213.800598 777.070190,208.334717 
	C775.122864,205.707169 773.187073,203.071121 771.179626,200.348816 
	C765.803955,203.854919 765.023682,210.868881 759.236816,213.171738 
	C758.741821,213.368713 758.001831,212.949783 757.156555,212.770477 
	C757.774963,208.570312 760.821472,206.001114 762.922974,202.963211 
	C767.831787,195.867096 767.876709,195.971313 762.715393,188.843735 
	C760.539673,185.839096 757.713806,183.158371 756.482605,178.032867 
	C764.656982,179.863022 765.294556,187.971466 770.790283,191.494690 
	C775.181030,188.082642 777.204956,182.489227 781.706909,178.668549 
z"/>
<path fill="#000000" opacity="1.000000" stroke="none" 
	d="
M422.774292,210.477661 
	C422.740723,201.056717 422.864197,192.078781 422.672180,183.107574 
	C422.592468,179.382523 424.171173,178.001297 427.654175,178.038391 
	C432.307159,178.087967 436.961853,177.989059 441.614410,178.055344 
	C443.225922,178.078293 445.363281,177.962616 445.440094,180.233902 
	C445.525238,182.750381 443.266144,182.261627 441.727386,182.301468 
	C438.239349,182.391754 434.737946,182.490509 431.259308,182.288162 
	C426.728333,182.024597 427.163605,185.083084 427.216736,187.927643 
	C427.267822,190.660507 426.487915,193.914856 431.124207,193.693787 
	C434.271759,193.543716 437.436676,193.708908 440.592010,193.798187 
	C441.609985,193.826981 442.680573,194.133850 442.803284,195.354340 
	C442.965332,196.966049 441.707825,197.248627 440.512329,197.279755 
	C437.356537,197.361984 434.195923,197.435822 431.041748,197.348907 
	C428.273407,197.272614 427.322906,198.485291 427.176727,201.215469 
	C426.731750,209.527283 426.793915,209.689102 434.887756,209.712189 
	C437.877716,209.720734 440.869904,209.744812 443.855988,209.876953 
	C444.904877,209.923386 445.750122,210.545578 445.808960,211.746384 
	C445.858887,212.765167 445.138885,213.296906 444.283142,213.380783 
	C437.652802,214.030579 431.023956,213.738144 424.407959,213.150162 
	C423.246368,213.046936 422.935486,211.961243 422.774292,210.477661 
z"/>
<path fill="#000000" opacity="1.000000" stroke="none" 
	d="
M724.072510,187.996063 
	C723.514160,192.682266 725.560547,194.080307 729.562561,193.704758 
	C731.868469,193.488342 734.216064,193.612061 736.538818,193.716858 
	C737.934326,193.779816 739.937195,193.441391 739.818176,195.679321 
	C739.723816,197.454514 737.971069,197.293594 736.689392,197.326492 
	C733.865173,197.399017 731.029053,197.518433 728.214661,197.345032 
	C723.800110,197.073074 723.862183,200.010757 724.100281,202.937378 
	C724.329102,205.749573 722.656189,209.794296 728.049744,209.703140 
	C731.871521,209.638550 735.696716,209.673340 739.518433,209.752777 
	C740.968079,209.782913 742.856689,209.675430 742.689453,211.887024 
	C742.558044,213.625916 740.911194,213.670456 739.598511,213.658829 
	C734.281921,213.611755 728.966125,213.428604 723.649719,213.408813 
	C720.923828,213.398651 719.727234,212.155899 719.732727,209.477325 
	C719.751343,200.334946 719.750549,191.192368 719.699341,182.050171 
	C719.685974,179.669357 720.555298,178.148880 723.081726,178.122299 
	C728.565125,178.064575 734.049927,178.051147 739.533203,178.107941 
	C741.088135,178.124054 742.740906,178.567764 742.605286,180.556198 
	C742.484558,182.325912 740.855408,182.289078 739.532471,182.305588 
	C736.208374,182.347107 732.867493,182.535767 729.563049,182.281052 
	C725.552124,181.971909 723.515137,183.309647 724.072510,187.996063 
z"/>
<path fill="#000000" opacity="1.000000" stroke="none" 
	d="
M862.289062,178.658508 
	C866.480347,178.280258 865.746643,181.317383 865.790405,183.375137 
	C865.945862,190.689789 866.008240,198.015015 865.771912,205.325455 
	C865.667603,208.550842 866.534912,209.901688 869.898804,209.736008 
	C873.880005,209.539932 877.879822,209.702408 881.871155,209.744354 
	C883.062622,209.756897 884.407104,209.910919 884.597961,211.347763 
	C884.831238,213.104584 883.416077,213.681702 882.039917,213.704941 
	C876.059204,213.805984 870.075684,213.849228 864.095032,213.768463 
	C862.207031,213.742981 860.976440,212.550034 860.985718,210.560822 
	C861.033142,200.423645 861.123352,190.286621 861.243652,180.150085 
	C861.248779,179.718277 861.700195,179.291794 862.289062,178.658508 
z"/>
<path fill="#000000" opacity="1.000000" stroke="none" 
	d="
M81.575912,188.017929 
	C81.527008,195.064636 81.626892,201.704834 81.442970,208.337173 
	C81.392868,210.143890 82.729599,213.326141 79.152687,213.224686 
	C76.261101,213.142654 76.938126,210.366760 76.911667,208.524261 
	C76.811539,201.554642 76.644318,194.575272 76.910721,187.615173 
	C77.071144,183.423828 75.539864,182.015732 71.449692,182.245499 
	C69.484352,182.355896 65.901230,183.638550 65.908646,180.201294 
	C65.915863,176.856995 69.451790,178.090118 71.506737,178.032593 
	C77.476601,177.865494 83.455154,177.951691 89.429161,178.027710 
	C91.068443,178.048553 93.119629,178.125122 92.959137,180.474854 
	C92.819519,182.519104 90.876953,182.204376 89.440376,182.319611 
	C88.615654,182.385757 87.764343,182.446091 86.954651,182.319473 
	C82.744682,181.661087 81.189148,183.618408 81.575912,188.017929 
z"/>
<path fill="#000000" opacity="1.000000" stroke="none" 
	d="
M685.549133,182.365448 
	C683.285095,182.324432 681.454468,182.336823 679.627930,182.255310 
	C678.402344,182.200607 677.247009,181.838760 677.155701,180.353745 
	C677.062378,178.836075 678.234924,178.244858 679.414856,178.228592 
	C686.893799,178.125381 694.374329,178.095642 701.853882,178.133759 
	C703.266113,178.140945 704.553223,178.815430 704.433289,180.531158 
	C704.328796,182.026077 703.064819,182.132019 701.867676,182.318909 
	C699.155945,182.742310 695.607422,180.941635 693.877197,183.528824 
	C692.146362,186.116791 693.265564,189.688171 693.214111,192.825912 
	C693.124146,198.313248 693.214355,203.803452 693.131958,209.291016 
	C693.107910,210.896957 693.217041,212.996292 690.842163,212.985657 
	C688.393921,212.974655 688.711548,210.827209 688.698303,209.255371 
	C688.635254,201.771179 688.672180,194.286194 688.643433,186.801605 
	C688.635803,184.830246 688.964355,182.591873 685.549133,182.365448 
z"/>
<path fill="#000000" opacity="1.000000" stroke="none" 
	d="
M395.015167,178.005951 
	C398.667694,178.002945 401.831085,177.918655 404.988312,178.022263 
	C406.716187,178.078964 409.199097,177.637390 409.344025,180.157120 
	C409.509674,183.037827 406.873077,182.051910 405.246613,182.316086 
	C404.760437,182.395035 404.240997,182.389755 403.752777,182.316635 
	C399.346924,181.656754 397.880096,183.556641 398.059814,187.923157 
	C398.346924,194.898178 398.170074,201.894974 398.076721,208.881058 
	C398.054016,210.578766 398.477600,213.086212 395.763519,212.997910 
	C393.039795,212.909271 393.734314,210.377502 393.711731,208.722122 
	C393.616364,201.736145 393.495209,194.742569 393.725983,187.763107 
	C393.859711,183.719681 392.565430,181.976318 388.332428,182.240387 
	C386.281677,182.368317 382.577759,183.491364 382.532684,180.410919 
	C382.481812,176.931793 386.297089,178.298950 388.539673,178.045563 
	C390.510742,177.822876 392.527100,178.001602 395.015167,178.005951 
z"/>
<path fill="#000000" opacity="1.000000" stroke="none" 
	d="
M348.453430,178.020264 
	C355.049713,178.002411 361.195404,177.951767 367.339417,178.030640 
	C369.080933,178.052994 371.517975,177.814697 371.489807,180.394577 
	C371.463898,182.769943 369.133942,182.354416 367.602692,182.291336 
	C359.381958,181.952667 360.295410,182.624435 360.239868,190.110596 
	C360.191803,196.587555 360.253326,203.065353 360.200562,209.542252 
	C360.187592,211.136581 360.467163,213.197220 357.983215,213.204956 
	C355.518982,213.212631 355.731018,211.179306 355.720917,209.565628 
	C355.674072,202.092087 355.541809,194.613907 355.751038,187.146088 
	C355.854858,183.441071 354.545074,181.875183 350.854736,182.331909 
	C350.036987,182.433090 349.190643,182.402908 348.366455,182.330765 
	C346.801575,182.193756 344.561554,182.770599 344.382233,180.470413 
	C344.204529,178.190582 346.389832,178.280792 348.453430,178.020264 
z"/>
<path fill="#000000" opacity="1.000000" stroke="none" 
	d="
M808.696533,198.994476 
	C808.696106,194.832138 808.505066,191.154297 808.748108,187.505371 
	C809.002441,183.686478 807.807556,182.000259 803.698120,182.244934 
	C801.501892,182.375717 797.496094,183.632935 797.400635,180.432571 
	C797.284607,176.541229 801.426025,178.147873 803.757019,178.049240 
	C809.244690,177.816971 814.749817,177.929642 820.246216,178.013107 
	C821.837646,178.037247 823.996094,177.893982 823.993530,180.255692 
	C823.990845,182.732468 821.757080,182.383774 820.225586,182.308563 
	C811.941284,181.901749 813.285095,183.435287 813.216187,190.038773 
	C813.150146,196.368790 813.231323,202.700424 813.154602,209.030228 
	C813.133423,210.781769 813.378418,213.192612 810.651123,212.977173 
	C808.353271,212.795685 808.787598,210.560059 808.740662,208.986862 
	C808.646179,205.824203 808.702576,202.657013 808.696533,198.994476 
z"/>
<path fill="#000000" opacity="1.000000" stroke="none" 
	d="
M843.376831,190.025360 
	C843.375366,196.817047 843.414917,203.114334 843.342102,209.410324 
	C843.324524,210.927948 843.939758,213.144302 841.474426,213.297775 
	C839.115234,213.444656 839.082642,211.374969 839.073853,209.738159 
	C839.023804,200.458954 839.021301,191.179214 839.068909,181.900009 
	C839.076416,180.438141 839.147766,178.588226 841.133606,178.489304 
	C843.661987,178.363388 843.288635,180.499405 843.340210,182.074280 
	C843.421570,184.557404 843.371216,187.044876 843.376831,190.025360 
z"/>
</svg>